<svg width="1920" height="343" viewBox="0 0 1920 343" fill="none" xmlns="http://www.w3.org/2000/svg">
<path d="M-27.424 186V98.96H20.576V186H38.752V96.784H-45.6V186H-27.424ZM51.525 219.664H69.701C69.701 219.664 69.701 184.464 69.701 183.312C73.285 184.976 80.453 188.176 91.205 188.176C112.197 188.176 132.293 183.184 132.293 154.896C132.293 127.376 117.317 119.952 98.885 119.952C84.549 119.952 77.637 127.12 72.261 143.248C70.981 146.96 70.341 150.8 69.701 154.64V122H51.525V219.664ZM95.941 122.384C109.765 122.384 113.605 136.208 113.605 154.896C113.605 181.904 104.389 185.616 88.517 185.616C77.765 185.616 73.157 182.032 69.701 180.368C70.085 163.6 72.389 122.384 95.941 122.384ZM141.23 154.128C141.23 176.528 160.686 188.048 181.678 188.048C202.542 188.048 222.126 176.528 222.126 154.128C222.126 131.6 202.542 119.952 181.678 119.952C160.686 119.952 141.23 131.6 141.23 154.128ZM181.678 122C197.678 122 203.438 131.984 203.438 154.128C203.438 175.888 198.574 186.128 181.678 186.128C164.27 186.128 159.918 175.888 159.918 154.128C159.918 131.984 165.806 122 181.678 122ZM269.889 188.048C289.729 188.048 299.073 178.32 301.249 176.528L300.225 175.248C291.905 182.416 281.537 185.872 269.889 185.872C254.657 185.872 250.049 172.048 250.049 154.128C250.049 132.752 257.473 122.256 269.889 122.256C287.169 122.256 293.825 129.68 295.233 138L297.409 137.488C296.001 128.144 287.425 120.08 269.889 120.08C246.849 120.08 231.105 134.416 231.105 154.128C231.105 173.584 245.697 188.048 269.889 188.048ZM329.844 124.176V186H348.02V124.176H373.236V122H304.5V124.176H329.844ZM371.355 154.128C371.355 176.528 390.811 188.048 411.803 188.048C432.667 188.048 452.251 176.528 452.251 154.128C452.251 131.6 432.667 119.952 411.803 119.952C390.811 119.952 371.355 131.6 371.355 154.128ZM411.803 122C427.803 122 433.563 131.984 433.563 154.128C433.563 175.888 428.699 186.128 411.803 186.128C394.395 186.128 390.043 175.888 390.043 154.128C390.043 131.984 395.931 122 411.803 122ZM578.912 186C585.824 186.128 591.584 191.76 591.584 198.928C591.584 205.968 585.824 211.728 578.656 211.728C571.488 211.728 565.728 205.968 565.728 198.928H563.68C563.68 207.12 570.336 213.904 578.656 213.904C586.976 213.904 593.632 207.12 593.632 198.928C593.632 191.248 588.384 184.976 580.576 183.952C571.744 159.888 565.6 145.936 556.384 122H537.312L525.152 157.328C516.832 181.52 514.656 183.824 509.28 183.824V186H578.912ZM517.856 181.008C520.416 176.912 523.232 169.488 527.2 158.096L538.592 125.2L561.376 183.952H515.424C516.192 183.184 517.088 182.288 517.856 181.008ZM584.48 154.128C584.48 173.584 599.072 188.048 624.032 188.048C636.192 188.048 644.64 184.592 654.624 176.528L653.472 175.12C645.152 182.288 634.912 185.872 623.264 185.872C608.416 185.872 604.448 172.56 603.68 160.016H652.96C652.96 138.768 649.504 120.08 623.264 120.08C603.04 120.08 584.48 131.984 584.48 154.128ZM603.552 157.968V154.256C603.552 140.688 606.624 122.128 623.264 122.128C646.816 122.128 650.784 138.768 650.784 157.968H603.552ZM659.215 186H661.519L682.127 125.072L705.807 186H724.879L700.047 122H680.975L659.215 186ZM760.938 188.048C780.906 188.048 787.05 172.176 789.866 155.408L790.122 153.872V186H808.298V145.936C808.298 123.792 789.098 120.08 773.738 120.08C750.442 120.08 740.202 128.4 736.106 134.928L749.546 141.328C738.922 143.632 730.73 150.928 730.73 162.704C730.73 183.696 743.786 188.048 760.938 188.048ZM765.034 142.224H789.354C787.946 160.656 784.362 186.128 760.81 186.128C753.258 186.128 749.418 180.752 749.418 163.984C749.418 147.984 754.666 142.224 765.034 142.224ZM754.666 140.432C754.666 137.36 759.274 122 773.098 122C789.226 122 789.61 126.992 789.61 140.048H760.81C758.634 140.048 756.586 140.176 754.666 140.432ZM821.15 186H839.326C844.19 186 856.222 184.592 866.334 176.016C874.27 169.232 879.006 159.76 881.822 147.088V186H899.998V122H881.822V130.32C879.39 179.344 849.31 183.696 839.326 183.824V122H821.15V186ZM860.574 112.4C865.822 112.4 870.046 108.176 870.046 103.056H867.87C867.87 107.024 864.67 110.352 860.574 110.352C856.606 110.352 853.278 107.024 853.278 103.056H851.23C851.23 108.176 855.454 112.4 860.574 112.4ZM931.719 124.176V186H949.895V124.176H975.111V122H906.375V124.176H931.719ZM973.23 154.128C973.23 173.584 987.822 188.048 1012.78 188.048C1024.94 188.048 1033.39 184.592 1043.37 176.528L1042.22 175.12C1033.9 182.288 1023.66 185.872 1012.01 185.872C997.166 185.872 993.198 172.56 992.43 160.016H1041.71C1041.71 138.768 1038.25 120.08 1012.01 120.08C991.79 120.08 973.23 131.984 973.23 154.128ZM992.302 157.968V154.256C992.302 140.688 995.374 122.128 1012.01 122.128C1035.57 122.128 1039.53 138.768 1039.53 157.968H992.302ZM1059.68 188.176C1063.01 188.176 1066.34 186.256 1068.13 183.696C1068.26 188.304 1066.47 192.528 1061.99 194.448C1060.71 194.96 1059.3 195.216 1057.89 195.216C1055.71 195.216 1053.41 194.576 1051.36 193.424L1050.34 195.344C1052.64 196.624 1055.2 197.264 1057.89 197.264C1063.27 197.264 1068.13 194.064 1069.67 188.688C1070.56 185.616 1070.69 180.24 1070.43 177.296C1069.79 171.152 1065.44 167.184 1059.68 167.184C1053.92 167.184 1049.19 171.792 1049.19 177.68C1049.19 183.312 1054.18 188.176 1059.68 188.176ZM1157.27 166.032C1173.78 166.032 1179.8 156.432 1183.26 138.384V186H1201.43V122H1183.26C1183.26 125.328 1183.38 129.552 1179.8 144.144C1175.96 159.504 1168.54 163.856 1157.14 163.856C1149.59 163.856 1149.08 159.12 1149.08 145.168V122H1130.78V138.256C1130.78 157.584 1140.12 166.032 1157.27 166.032ZM1233.22 124.176V186H1251.4V124.176H1276.61V122H1207.88V124.176H1233.22ZM1274.73 154.128C1274.73 176.528 1294.19 188.048 1315.18 188.048C1336.04 188.048 1355.63 176.528 1355.63 154.128C1355.63 131.6 1336.04 119.952 1315.18 119.952C1294.19 119.952 1274.73 131.6 1274.73 154.128ZM1315.18 122C1331.18 122 1336.94 131.984 1336.94 154.128C1336.94 175.888 1332.07 186.128 1315.18 186.128C1297.77 186.128 1293.42 175.888 1293.42 154.128C1293.42 131.984 1299.31 122 1315.18 122ZM1435.95 186V153.36H1478.19V186H1496.37V122H1478.19V151.184H1435.95V122H1417.78V186H1435.95ZM1509.15 219.664H1527.33C1527.33 219.664 1527.33 184.464 1527.33 183.312C1530.91 184.976 1538.08 188.176 1548.83 188.176C1569.82 188.176 1589.92 183.184 1589.92 154.896C1589.92 127.376 1574.94 119.952 1556.51 119.952C1542.17 119.952 1535.26 127.12 1529.89 143.248C1528.61 146.96 1527.97 150.8 1527.33 154.64V122H1509.15V219.664ZM1553.57 122.384C1567.39 122.384 1571.23 136.208 1571.23 154.896C1571.23 181.904 1562.01 185.616 1546.14 185.616C1535.39 185.616 1530.78 182.032 1527.33 180.368C1527.71 163.6 1530.01 122.384 1553.57 122.384ZM1629.06 188.048C1649.03 188.048 1655.18 172.176 1657.99 155.408L1658.25 153.872V186H1676.42V145.936C1676.42 123.792 1657.22 120.08 1641.86 120.08C1618.57 120.08 1608.33 128.4 1604.23 134.928L1617.67 141.328C1607.05 143.632 1598.86 150.928 1598.86 162.704C1598.86 183.696 1611.91 188.048 1629.06 188.048ZM1633.16 142.224H1657.48C1656.07 160.656 1652.49 186.128 1628.94 186.128C1621.38 186.128 1617.54 180.752 1617.54 163.984C1617.54 147.984 1622.79 142.224 1633.16 142.224ZM1622.79 140.432C1622.79 137.36 1627.4 122 1641.22 122C1657.35 122 1657.74 126.992 1657.74 140.048H1628.94C1626.76 140.048 1624.71 140.176 1622.79 140.432ZM1728.57 186C1744.06 186 1761.08 186.384 1761.08 168.592C1761.08 155.792 1751.87 152.464 1740.73 151.44C1747.77 149.904 1755.96 145.808 1755.96 135.952C1755.96 122 1742.78 120.08 1729.34 120.08C1714.62 120.08 1708.86 128.656 1707.32 134.16V122H1689.28V186H1728.57ZM1707.32 152.72H1726.4C1737.28 152.72 1742.01 155.792 1742.01 168.72C1742.01 183.824 1734.72 183.824 1721.66 183.824H1707.32V152.72ZM1707.32 141.456C1708.73 131.856 1714.88 122.384 1727.29 122.384C1734.84 122.384 1737.53 124.816 1737.53 136.08C1737.53 149.136 1732.41 150.544 1724.86 150.544H1707.32C1707.32 147.728 1707.32 144.272 1707.32 141.456ZM1772.03 186H1790.2C1812.73 186 1827.83 169.36 1832.7 147.088V186H1850.87V122H1832.7V130.192C1830.26 179.216 1800.19 183.824 1790.2 183.824V122H1772.03V186ZM1882.59 124.176V186H1900.77V124.176H1925.99V122H1857.25V124.176H1882.59ZM1962.89 188.048C1982.73 188.048 1992.07 178.32 1994.25 176.528L1993.23 175.248C1984.91 182.416 1974.54 185.872 1962.89 185.872C1947.66 185.872 1943.05 172.048 1943.05 154.128C1943.05 132.752 1950.47 122.256 1962.89 122.256C1980.17 122.256 1986.83 129.68 1988.23 138L1990.41 137.488C1989 128.144 1980.43 120.08 1962.89 120.08C1939.85 120.08 1924.11 134.416 1924.11 154.128C1924.11 173.584 1938.7 188.048 1962.89 188.048ZM2031.55 161.68L2025.15 178.576C2023.74 182.416 2020.03 185.104 2015.93 185.104H2015.42C2010.04 185.104 2005.82 180.112 2005.82 174.864C2005.82 172.176 2006.84 169.744 2008.64 167.824L2007.1 166.288C2004.92 168.592 2003.64 171.664 2003.64 174.864C2003.64 181.264 2008.76 187.152 2015.42 187.152H2015.93C2020.92 187.152 2025.4 184.08 2027.2 179.344L2033.85 161.68H2056.51C2057.02 168.72 2057.02 181.392 2057.02 186H2075.45V122H2057.02V143.888C2056.64 138.512 2053.95 119.824 2033.72 119.824C2015.55 119.824 2001.98 125.584 2001.98 140.048C2001.98 155.024 2009.66 161.68 2031.55 161.68ZM2034.75 121.744C2055.23 121.744 2055.87 145.68 2056.25 156.176L2056.38 159.504H2036.8C2025.79 159.504 2020.41 155.152 2020.41 140.816C2020.41 126.224 2026.04 121.744 2034.75 121.744ZM2094.81 188.176C2098.13 188.176 2101.46 186.256 2103.25 183.696C2103.38 188.304 2101.59 192.528 2097.11 194.448C2095.83 194.96 2094.42 195.216 2093.01 195.216C2090.84 195.216 2088.53 194.576 2086.49 193.424L2085.46 195.344C2087.77 196.624 2090.33 197.264 2093.01 197.264C2098.39 197.264 2103.25 194.064 2104.79 188.688C2105.69 185.616 2105.81 180.24 2105.56 177.296C2104.92 171.152 2100.57 167.184 2094.81 167.184C2089.05 167.184 2084.31 171.792 2084.31 177.68C2084.31 183.312 2089.3 188.176 2094.81 188.176Z" fill="#1F1E1E"/>
<path d="M746.688 342.048C766.656 342.048 772.8 326.176 775.616 309.408L775.872 307.872V340H794.048V299.936C794.048 277.792 774.848 274.08 759.488 274.08C736.192 274.08 725.952 282.4 721.856 288.928L735.296 295.328C724.672 297.632 716.48 304.928 716.48 316.704C716.48 337.696 729.536 342.048 746.688 342.048ZM750.784 296.224H775.104C773.696 314.656 770.112 340.128 746.56 340.128C739.008 340.128 735.168 334.752 735.168 317.984C735.168 301.984 740.416 296.224 750.784 296.224ZM740.416 294.432C740.416 291.36 745.024 276 758.848 276C774.976 276 775.36 280.992 775.36 294.048H746.56C744.384 294.048 742.336 294.176 740.416 294.432ZM858.15 340H876.326V279.456L903.206 314.4L930.086 279.456V340H948.262V276H929.83L903.206 310.944L876.454 276H858.15V340ZM961.025 276V340H994.689C1016.32 340 1033.73 337.44 1033.73 315.168C1033.73 295.456 1014.4 290.592 998.145 290.592H979.201V276H961.025ZM979.201 337.824V292.768H992.129C1003.52 292.768 1014.91 297.12 1014.91 315.168C1014.91 333.344 1006.47 337.824 988.673 337.824H979.201ZM1039.49 276V340H1057.67V276H1039.49ZM1161.07 340C1176.56 340 1193.58 340.384 1193.58 322.592C1193.58 309.792 1184.37 306.464 1173.23 305.44C1180.27 303.904 1188.46 299.808 1188.46 289.952C1188.46 276 1175.28 274.08 1161.84 274.08C1147.12 274.08 1141.36 282.656 1139.82 288.16V276H1121.78V340H1161.07ZM1139.82 306.72H1158.9C1169.78 306.72 1174.51 309.792 1174.51 322.72C1174.51 337.824 1167.22 337.824 1154.16 337.824H1139.82V306.72ZM1139.82 295.456C1141.23 285.856 1147.38 276.384 1159.79 276.384C1167.34 276.384 1170.03 278.816 1170.03 290.08C1170.03 303.136 1164.91 304.544 1157.36 304.544H1139.82C1139.82 301.728 1139.82 298.272 1139.82 295.456ZM1232.81 342.048C1252.78 342.048 1258.93 326.176 1261.74 309.408L1262 307.872V340H1280.17V299.936C1280.17 277.792 1260.97 274.08 1245.61 274.08C1222.32 274.08 1212.08 282.4 1207.98 288.928L1221.42 295.328C1210.8 297.632 1202.61 304.928 1202.61 316.704C1202.61 337.696 1215.66 342.048 1232.81 342.048ZM1236.91 296.224H1261.23C1259.82 314.656 1256.24 340.128 1232.69 340.128C1225.13 340.128 1221.29 334.752 1221.29 317.984C1221.29 301.984 1226.54 296.224 1236.91 296.224ZM1226.54 294.432C1226.54 291.36 1231.15 276 1244.97 276C1261.1 276 1261.49 280.992 1261.49 294.048H1232.69C1230.51 294.048 1228.46 294.176 1226.54 294.432ZM1293.03 340H1311.2V279.456L1338.08 314.4L1364.96 279.456V340H1383.14V276H1364.71L1338.08 310.944L1311.33 276H1293.03V340ZM1447.15 276V340H1465.33V278.176H1503.85V340H1522.03V276H1447.15ZM1532.86 308.128C1532.86 330.528 1552.31 342.048 1573.3 342.048C1594.17 342.048 1613.75 330.528 1613.75 308.128C1613.75 285.6 1594.17 273.952 1573.3 273.952C1552.31 273.952 1532.86 285.6 1532.86 308.128ZM1573.3 276C1589.3 276 1595.06 285.984 1595.06 308.128C1595.06 329.888 1590.2 340.128 1573.3 340.128C1555.9 340.128 1551.54 329.888 1551.54 308.128C1551.54 285.984 1557.43 276 1573.3 276ZM1624.65 340H1642.83V279.456L1669.71 314.4L1696.59 279.456V340H1714.76V276H1696.33L1669.71 310.944L1642.95 276H1624.65V340ZM1725.61 308.128C1725.61 330.528 1745.06 342.048 1766.05 342.048C1786.92 342.048 1806.5 330.528 1806.5 308.128C1806.5 285.6 1786.92 273.952 1766.05 273.952C1745.06 273.952 1725.61 285.6 1725.61 308.128ZM1766.05 276C1782.05 276 1787.81 285.984 1787.81 308.128C1787.81 329.888 1782.95 340.128 1766.05 340.128C1748.65 340.128 1744.29 329.888 1744.29 308.128C1744.29 285.984 1750.18 276 1766.05 276ZM1812.98 340H1831.67C1831.67 317.856 1837.68 307.232 1853.43 307.232H1859.83V340H1878V307.232H1884.15C1899.89 307.232 1905.91 317.856 1905.91 340H1924.6C1924.6 318.752 1909.11 305.056 1887.09 305.056V300.704C1887.09 288.928 1887.99 276.512 1903.48 276.512C1909.62 276.512 1914.48 281.376 1914.48 287.52C1914.48 293.536 1909.62 298.528 1903.48 298.528V300.704C1910.77 300.704 1916.66 294.816 1916.66 287.52C1916.66 280.224 1910.77 274.336 1903.48 274.336C1885.43 274.336 1884.92 289.312 1884.92 302.88V305.056H1878V244.64H1859.83V305.056H1852.79V302.88C1852.79 289.312 1852.15 274.336 1834.1 274.336C1826.93 274.336 1820.92 280.224 1820.92 287.52C1820.92 294.816 1826.93 300.704 1834.1 300.704V298.528C1828.08 298.528 1823.09 293.536 1823.09 287.52C1823.09 281.376 1828.08 276.512 1834.1 276.512C1849.59 276.512 1850.48 288.928 1850.48 300.704V305.056C1828.6 305.056 1812.98 318.752 1812.98 340ZM1932.36 308.128C1932.36 327.584 1946.95 342.048 1971.91 342.048C1984.07 342.048 1992.51 338.592 2002.5 330.528L2001.35 329.12C1993.03 336.288 1982.79 339.872 1971.14 339.872C1956.29 339.872 1952.32 326.56 1951.56 314.016H2000.84C2000.84 292.768 1997.38 274.08 1971.14 274.08C1950.92 274.08 1932.36 285.984 1932.36 308.128ZM1951.43 311.968V308.256C1951.43 294.688 1954.5 276.128 1971.14 276.128C1994.69 276.128 1998.66 292.768 1998.66 311.968H1951.43ZM2012.15 340H2030.33V279.456L2057.21 314.4L2084.09 279.456V340H2102.26V276H2083.83L2057.21 310.944L2030.45 276H2012.15V340Z" fill="#1F1E1E"/>
</svg>
