<svg xmlns="http://www.w3.org/2000/svg" xmlns:xlink="http://www.w3.org/1999/xlink"><defs>
        <clipPath id="a">
            <path fill="#fff" transform="rotate(90 21.5 21.5)" d="M0 0h70v24H0z"/>
        </clipPath>
    </defs><symbol id="contact"><g fill="none">
    <path d="M22 16.92v3a2 2 0 0 1-2.18 2 19.79 19.79 0 0 1-8.63-3.07 19.5 19.5 0 0 1-6-6 19.79 19.79 0 0 1-3.07-8.67A2 2 0 0 1 4.11 2h3a2 2 0 0 1 2 1.72c.127.96.361 1.903.7 2.81a2 2 0 0 1-.45 2.11L8.09 9.91a16 16 0 0 0 6 6l1.27-1.27a2 2 0 0 1 2.11-.45c.907.339 1.85.574 2.81.7A2 2 0 0 1 22 16.92Z" fill="#BC3324"/>
</g></symbol><symbol id="door"><g fill="none">
    <path d="m10 17 5-5-5-5M15 12H3M15 3h4a2 2 0 0 1 2 2v14a2 2 0 0 1-2 2h-4" stroke="#1F1E1E" stroke-width="2" stroke-linecap="round" stroke-linejoin="round"/>
</g></symbol><symbol id="handshake"><g fill="none">
    <path d="M16.48 10.41c-.39.39-1.04.39-1.43 0l-4.47-4.46-7.05 7.04-.66-.63a3 3 0 0 1 0-4.24l4.24-4.24a3 3 0 0 1 4.24 0L16.48 9c.39.39.39 1.02 0 1.41Zm.7-2.12c.78.78.78 2.05 0 2.83-1.27 1.27-2.61.22-2.83 0l-3.76-3.76-5.57 5.57a.996.996 0 0 0 0 1.41c.39.39 1.02.39 1.42 0l4.62-4.62.71.71-4.62 4.62a.996.996 0 0 0 0 1.41c.39.39 1.02.39 1.42 0l4.62-4.62.71.71-4.62 4.62a.997.997 0 0 0 1.41 1.41l4.62-4.62.71.71-4.62 4.62a.998.998 0 0 0 .705 1.702.997.997 0 0 0 .705-.292l8.32-8.34a3 3 0 0 0 0-4.24l-4.24-4.24a3.001 3.001 0 0 0-4.18-.06l4.47 4.47Z" fill="#BC3324"/>
</g></symbol><symbol id="home" viewBox="0 0 24 24"><g fill="none">
    <path d="m20 8-6-5.26a3 3 0 0 0-4 0L4 8a3 3 0 0 0-1 2.26V19a3 3 0 0 0 3 3h12a3 3 0 0 0 3-3v-8.75A3 3 0 0 0 20 8Zm-6 12h-4v-5a1 1 0 0 1 1-1h2a1 1 0 0 1 1 1v5Zm5-1a1 1 0 0 1-1 1h-2v-5a3 3 0 0 0-3-3h-2a3 3 0 0 0-3 3v5H6a1 1 0 0 1-1-1v-8.75a1 1 0 0 1 .34-.75l6-5.25a1 1 0 0 1 1.32 0l6 5.25a1 1 0 0 1 .34.75V19Z" fill="#BC3324"/>
    <path d="M19 19a1 1 0 0 1-1 1h-2v-5a3 3 0 0 0-3-3h-2a3 3 0 0 0-3 3v5H6a1 1 0 0 1-1-1v-8.75a1 1 0 0 1 .34-.75l6-5.25a1 1 0 0 1 1.32 0l6 5.25a1 1 0 0 1 .34.75V19Z" fill="#BC3324"/>
</g></symbol><symbol id="information"><g fill="none">
    <path fill-rule="evenodd" clip-rule="evenodd" d="M12 23c6.075 0 11-4.925 11-11S18.075 1 12 1 1 5.925 1 12s4.925 11 11 11Zm-1-6.6a1 1 0 0 1 1-1h.011a1 1 0 1 1 0 2H12a1 1 0 0 1-1-1Zm2-8.8a1 1 0 1 0-2 0V12a1 1 0 1 0 2 0V7.6Z" fill="#BC3324"/>
</g></symbol><symbol id="insta"><g fill="none">
    <circle cx="29" cy="29" r="29" fill="#1F1E1E"/>
    <path d="M29 24a5 5 0 1 0 0 10 5 5 0 0 0 0-10Zm0 8.247a3.248 3.248 0 1 1 0-6.496 3.248 3.248 0 0 1 0 6.496ZM34 25a1 1 0 1 0 0-2 1 1 0 0 0 0 2Z" fill="#fff"/>
    <path d="M38.47 22.444a5.106 5.106 0 0 0-2.924-2.918 7.348 7.348 0 0 0-2.428-.466c-1.07-.047-1.408-.06-4.12-.06s-3.06 0-4.12.06c-.83.016-1.65.174-2.426.466a5.11 5.11 0 0 0-2.925 2.918 7.293 7.293 0 0 0-.465 2.424c-.048 1.067-.062 1.405-.062 4.114 0 2.708 0 3.053.062 4.114.017.83.173 1.648.465 2.425a5.11 5.11 0 0 0 2.926 2.919 7.321 7.321 0 0 0 2.427.499c1.07.047 1.408.061 4.12.061s3.06 0 4.12-.061a7.355 7.355 0 0 0 2.428-.465 5.125 5.125 0 0 0 2.924-2.92 7.296 7.296 0 0 0 .466-2.423c.048-1.067.062-1.405.062-4.114 0-2.71 0-3.053-.062-4.114a7.286 7.286 0 0 0-.468-2.459Zm-1.352 10.57a5.585 5.585 0 0 1-.346 1.872 3.312 3.312 0 0 1-1.901 1.897 5.544 5.544 0 0 1-1.855.345c-1.055.049-1.353.061-4.058.061-2.708 0-2.984 0-4.06-.06a5.514 5.514 0 0 1-1.853-.346 3.316 3.316 0 0 1-1.91-1.897 5.627 5.627 0 0 1-.345-1.85c-.047-1.054-.058-1.351-.058-4.053s0-2.978.058-4.053a5.579 5.579 0 0 1 .346-1.87 3.314 3.314 0 0 1 1.909-1.899 5.571 5.571 0 0 1 1.853-.345c1.057-.047 1.353-.06 4.06-.06 2.706 0 2.984 0 4.058.06.634.008 1.26.125 1.855.345a3.322 3.322 0 0 1 1.901 1.899c.218.593.335 1.219.346 1.85.047 1.055.06 1.351.06 4.053s0 2.992-.048 4.052h-.013Z" fill="#fff"/>
</g></symbol><symbol id="link" viewBox="0 0 68 42"><g fill="none">
    <path d="M33 35.142a19.89 19.89 0 0 0 10.198 5.474 19.84 19.84 0 0 0 11.507-1.138 19.935 19.935 0 0 0 8.938-7.367A20.06 20.06 0 0 0 67 21a20.06 20.06 0 0 0-3.357-11.111 19.935 19.935 0 0 0-8.938-7.367 19.84 19.84 0 0 0-11.507-1.138A19.891 19.891 0 0 0 33 6.858" stroke="currentColor" stroke-width="2" stroke-linecap="round"/>
    <path d="M3.929 21h47.143M45.571 15.75l5.5 5.25-5.5 5.25" stroke="currentColor" stroke-width="2" stroke-linecap="round" stroke-linejoin="round"/>
</g></symbol><symbol id="list"><g fill="none">
    <rect width="15" height="2" rx="1" fill="#BFBFBF"/>
    <rect x="21" width="15" height="2" rx="1" fill="#BFBFBF"/>
    <rect x="42" width="15" height="2" rx="1" fill="#1F1E1E"/>
    <rect x="63" width="15" height="2" rx="1" fill="#BFBFBF"/>
    <rect x="84" width="15" height="2" rx="1" fill="#BFBFBF"/>
</g></symbol><symbol id="location" viewBox="0 0 24 24"><g fill="none">
    <circle cx="12" cy="12" r="9" fill="#BC3324"/>
</g></symbol><symbol id="logo"><g fill="none">
    <path fill="#1F1E1E" d="M0 0h147v147H0z"/>
    <path d="M39.965 72.439H26.633V50.032h-.032v-.033h-4.686V73h18.05v-.561ZM43.932 73h18.117v-.561H48.618V61.285h10.494v-.594H48.618V50.56h13.43v-.561H43.933V73ZM70.7 73V50.56c2.87 0 11.714 1.089 12.374 13.893V73h4.686V49.999h-4.686v10.329C81.655 54.19 77.167 49.999 70.7 49.999h-4.686V73H70.7ZM97.39 73V50.56c2.87 0 11.714 1.089 12.374 13.893V73h4.686V49.999h-4.686v10.329c-1.419-6.138-5.907-10.329-12.375-10.329h-4.686V73h4.686ZM119.393 73h4.686V49.999h-4.686V73Z" fill="#fff"/>
    <path fill="#BC3324" d="M81 92h121v42H81z"/>
    <path d="M108.922 124h.54l2.94-8.55h8.55l3.33 8.55h4.47l-8.1-20.91h-4.53l-7.2 20.91Zm7.5-20.25 4.35 11.19h-8.19l3.84-11.19ZM132.644 103.09V124h4.26v-7.23h5.07l4.89 7.2h4.86l-5.16-7.65c3-.78 5.28-2.64 5.28-6.81 0-5.22-3.81-6.87-8.25-6.87-4.68 0-6.03 3.51-6.69 7.41v-6.96h-4.26Zm5.43 4.38c.81-2.94 2.91-4.14 4.77-4.29 4.47-.42 4.65 2.43 4.65 6.33 0 6.33-3.36 6.75-6.24 6.75h-4.35s-.12-4.14 1.17-8.79ZM162.084 103.6l.03 20.4h4.26v-20.4h8.61v-.51h-21.51v.51h8.61Z" fill="#fff"/>
</g></symbol><symbol id="menu"><g fill="none">
    <path d="M3 18h18M3 12h18M3 6h18" stroke="#1F1E1E" stroke-width="2" stroke-linecap="round" stroke-linejoin="round"/>
</g></symbol><symbol id="showDown" viewBox="0 0 62 92"><g fill="none">
    <path d="M9.787 40a29.837 29.837 0 0 0-8.21 15.297 29.76 29.76 0 0 0 1.707 17.26 29.902 29.902 0 0 0 11.049 13.408A30.089 30.089 0 0 0 31 91a30.089 30.089 0 0 0 16.667-5.035 29.902 29.902 0 0 0 11.05-13.407 29.76 29.76 0 0 0 1.706-17.262A29.836 29.836 0 0 0 52.213 40" stroke="#1F1E1E" stroke-width="2" stroke-linecap="round"/>
    <g clip-path="url(#a)" stroke="#1F1E1E" stroke-width="2" stroke-linecap="round" stroke-linejoin="round">
        <path d="M31 5v60M38 58l-7 7-7-7"/>
    </g>
    
</g></symbol><symbol id="showLeft"><g fill="none">
    <path d="M52 9.787a29.836 29.836 0 0 0-15.297-8.21 29.76 29.76 0 0 0-17.26 1.707A29.902 29.902 0 0 0 6.034 14.333 30.09 30.09 0 0 0 1 31a30.09 30.09 0 0 0 5.035 16.667 29.903 29.903 0 0 0 13.407 11.05 29.76 29.76 0 0 0 17.261 1.706A29.836 29.836 0 0 0 52 52.213" stroke="#1F1E1E" stroke-width="2" stroke-linecap="round"/>
    <path d="M87 31H27M34 38l-7-7 7-7" stroke="#1F1E1E" stroke-width="2" stroke-linecap="round" stroke-linejoin="round"/>
</g></symbol><symbol id="showRight"><g fill="none">
    <path d="M40 52.213a29.836 29.836 0 0 0 15.297 8.21 29.76 29.76 0 0 0 17.26-1.707 29.902 29.902 0 0 0 13.408-11.049A30.089 30.089 0 0 0 91 31a30.089 30.089 0 0 0-5.035-16.667 29.902 29.902 0 0 0-13.407-11.05 29.76 29.76 0 0 0-17.262-1.707A29.837 29.837 0 0 0 40 9.786" stroke="#1F1E1E" stroke-width="2" stroke-linecap="round"/>
    <path d="M5 31h60M58 24l7 7-7 7" stroke="#1F1E1E" stroke-width="2" stroke-linecap="round" stroke-linejoin="round"/>
</g></symbol><symbol id="star" viewBox="0 0 24 24"><g fill="none">
    <path d="M21.663 8.772a1 1 0 0 1 .33.462 1 1 0 0 1-.32 1.02l-4.13 4 1 5.68a1 1 0 0 1-.99 1.19.93.93 0 0 1-.46-.12l-5.1-2.68-5.12 2.67a1 1 0 0 1-1.45-1.07l1-5.68-4.13-4a1 1 0 0 1-.25-1 1 1 0 0 1 .81-.68l5.69-.84 2.55-5.16a1 1 0 0 1 1.8 0l2.55 5.17 5.69.83a1 1 0 0 1 .53.208Z" fill="#BC3324"/>
</g></symbol><symbol id="userCheck"><g fill="none">
    <path d="M13.3 12.22A4.92 4.92 0 0 0 15 8.5a5 5 0 0 0-10 0 4.92 4.92 0 0 0 1.7 3.72A8 8 0 0 0 2 19.5a1 1 0 1 0 2 0 6 6 0 1 1 12 0 1 1 0 0 0 2 0 8 8 0 0 0-4.7-7.28ZM10 11.5a3 3 0 1 1 0-6 3 3 0 0 1 0 6Zm11.71-2.37a1 1 0 0 0-1.42 0l-2 2-.62-.63a1.002 1.002 0 0 0-1.71.705 1 1 0 0 0 .29.705l1.34 1.34a1 1 0 0 0 1.41 0l2.67-2.67a1 1 0 0 0 .04-1.45Z" fill="#1F1E1E"/>
</g></symbol><symbol id="vk"><g fill="none">
    <circle cx="29" cy="29" r="29" fill="#1F1E1E"/>
    <path d="M22.71 19A3.725 3.725 0 0 0 19 22.71v12.58A3.725 3.725 0 0 0 22.71 39h12.58A3.725 3.725 0 0 0 39 35.29V22.71A3.725 3.725 0 0 0 35.29 19H22.71Zm0 1.818h12.58c1.054 0 1.892.838 1.892 1.893v12.578a1.881 1.881 0 0 1-1.893 1.893H22.711a1.88 1.88 0 0 1-1.893-1.893V22.711c0-1.055.838-1.893 1.893-1.893Z" fill="#fff"/>
    <path fill-rule="evenodd" clip-rule="evenodd" d="M34.725 26.406c.083-.234 0-.406-.398-.406h-1.312c-.334 0-.488.149-.572.313 0 0-.667 1.37-1.613 2.26-.306.257-.445.34-.612.34-.083 0-.209-.083-.209-.317v-2.19c0-.28-.092-.406-.37-.406h-2.064c-.208 0-.334.13-.334.254 0 .266.473.328.522 1.077v1.628c0 .357-.077.422-.244.422-.445 0-1.527-1.377-2.17-2.951-.124-.307-.25-.43-.585-.43H23.45c-.375 0-.45.149-.45.313 0 .292.445 1.744 2.073 3.665C26.157 31.289 27.684 32 29.076 32c.835 0 .938-.158.938-.43v-.991c0-.316.079-.379.343-.379.195 0 .529.082 1.308.714.89.75 1.036 1.086 1.537 1.086h1.313c.375 0 .563-.158.455-.47-.12-.31-.544-.76-1.108-1.295-.306-.304-.765-.632-.904-.796-.195-.21-.14-.304 0-.492 0 0 1.6-1.897 1.766-2.54Z" fill="#fff"/>
</g></symbol><symbol id="x"><g fill="none">
    <path d="M18 6 6 18M6 6l12 12" stroke="currentColor" stroke-width="2" stroke-linecap="round" stroke-linejoin="round"/>
</g></symbol></svg>